<svg width="82" height="100" xmlns="http://www.w3.org/2000/svg" xmlns:xlink="http://www.w3.org/1999/xlink"><defs><path id="a" d="M81.47.318v77.46H0V.318h81.47z"/><path id="c" d="M13.591.425H.055v20.79H13.59V.425z"/></defs><g fill="none" fill-rule="evenodd"><g transform="translate(.167 21.797)"><mask id="b" fill="#fff"><use xlink:href="#a"/></mask><path d="M27.875 6.986c-4.73 0-9.192 1.959-12.242 5.374a35.247 35.247 0 0 0-8.966 23.505c0 19.435 15.812 35.246 35.246 35.246 1.668 0 3.354-.123 5.01-.365a35.457 35.457 0 0 0 22.743-13.195c-5.362-4.566-8.581-11.368-8.581-18.47 0-8.485 4.41-16.24 11.483-20.607a35.017 35.017 0 0 0-4.374-6.113c-3.05-3.418-7.512-5.376-12.241-5.376-3.396 0-6.687.996-9.516 2.882l-4.523 3.016-4.525-3.016a17.1 17.1 0 0 0-9.514-2.881m14.038 70.792C18.802 77.778 0 58.976 0 35.865A41.904 41.904 0 0 1 10.66 7.92C14.975 3.09 21.249.32 27.876.32a23.75 23.75 0 0 1 13.211 4l.828.551.825-.55A23.75 23.75 0 0 1 55.953.318c6.626 0 12.9 2.77 17.213 7.602a41.93 41.93 0 0 1 6.898 10.6l1.406 3.093-3.12 1.347a17.545 17.545 0 0 0-10.6 16.12c0 6.005 3.18 11.716 8.3 14.904l2.888 1.798-1.856 2.85a42.137 42.137 0 0 1-29.195 18.71 41.412 41.412 0 0 1-5.974.436" fill="#000" mask="url(#b)"/></g><g transform="translate(37.389 .13)"><mask id="d" fill="#fff"><use xlink:href="#c"/></mask><path fill="#000" mask="url(#d)" d="M6.242 21.215L.055 18.731 7.405.425l6.186 2.484z"/></g></g></svg>