<svg width="110" height="32" xmlns="http://www.w3.org/2000/svg"><defs><linearGradient x1="60.1%" y1="91.98%" x2="33.5%" y2="-59.246%" id="a"><stop stop-color="#D7E69D" offset="0%"/><stop stop-color="#94C4AA" offset="44.56%"/><stop stop-color="#01A4B6" offset="100%"/></linearGradient><linearGradient x1="-31.986%" y1="-128.818%" x2="80.472%" y2="114.258%" id="b"><stop stop-color="#ED277B" offset="0%"/><stop stop-color="#EE2F7C" offset="1.92%"/><stop stop-color="#F7BD81" offset="70.39%"/><stop stop-color="#FEEB74" offset="100%"/></linearGradient><linearGradient x1="50.907%" y1="74.718%" x2="-.008%" y2="-29.439%" id="c"><stop stop-color="#89CFBD" offset="0%"/><stop stop-color="#7DBEBB" offset="9.07%"/><stop stop-color="#457CAC" offset="53.96%"/><stop stop-color="#1C5AA2" offset="85.23%"/><stop stop-color="#084D9F" offset="100%"/></linearGradient><linearGradient x1="119.297%" y1="35.68%" x2="-22.991%" y2="61.185%" id="d"><stop stop-color="#F04A2B" offset="0%"/><stop stop-color="#B54F6B" offset="47.04%"/><stop stop-color="#8B5191" offset="83.53%"/><stop stop-color="#7851A1" offset="100%"/></linearGradient></defs><g fill="none" fill-rule="evenodd"><path d="M76.992 24.01l-.896.843c-.206.113-.412.246-.617.339-.62.282-1.252.353-1.813.353-.598 0-1.534-.04-2.489-.73-1.328-.934-1.907-2.54-1.907-3.941 0-2.9 2.361-4.321 4.285-4.321.673 0 1.364.169 1.926.524.934.617 1.176 1.42 1.31 1.85l-4.396 1.777-1.44.112c.466 2.375 2.075 3.757 3.851 3.757.888 0 1.547-.288 2.152-.587-.001 0 .12-.062.034.024zm-2.653-4.728c.357-.13.543-.242.543-.502 0-.748-.845-1.609-1.853-1.609-.747 0-2.15.582-2.15 2.603 0 .313.038.65.057.986l3.403-1.478z" fill="#000"/><path d="M67.8 23.864c0 .727.13.84.745.898.32.038.64.054.957.093l-.692.41h-3.294c.432-.56.505-.615.505-.988v-.419l-.007-11.117H64.56l1.4-.675h2.673c-.58.336-.753.54-.828 1.194L67.8 23.864z" fill="#000"/><path d="M62.691 17.47c.428.354 1.325 1.103 1.325 2.523 0 1.384-.78 2.037-1.568 2.656-.242.243-.524.507-.524.916 0 .412.282.636.486.805l.677.52c.82.693 1.57 1.33 1.57 2.62 0 1.759-1.702 3.532-4.92 3.532-2.71 0-4.02-1.29-4.02-2.673 0-.674.336-1.628 1.441-2.281 1.16-.709 2.73-.804 3.572-.859-.263-.339-.563-.694-.563-1.273 0-.318.097-.507.188-.73-.205.02-.41.041-.598.041-1.984 0-3.106-1.482-3.106-2.937 0-.861.393-1.814 1.198-2.506 1.066-.878 2.337-1.03 3.345-1.03h3.854l-1.196.677H62.69zm-1.325 8.302c-.154-.019-.246-.019-.43-.019-.17 0-1.18.038-1.962.3-.413.152-1.61.598-1.61 1.926 0 1.326 1.292 2.283 3.29 2.283 1.795 0 2.749-.861 2.749-2.02-.002-.955-.618-1.459-2.037-2.47zm.537-3.553c.433-.432.47-1.027.47-1.367 0-1.344-.802-3.439-2.356-3.439-.485 0-1.01.243-1.31.62-.314.39-.409.895-.409 1.38 0 1.252.73 3.33 2.336 3.33.47 0 .973-.229 1.269-.524zm-10.805 3.289c-2.973 0-4.562-2.314-4.562-4.41 0-2.448 1.999-4.544 4.842-4.544 2.748 0 4.47 2.151 4.47 4.411 0 2.207-1.701 4.543-4.75 4.543zm2.338-1.514c.453-.598.562-1.344.562-2.073 0-1.646-.785-4.787-3.104-4.787-.617 0-1.237.241-1.685.635-.732.654-.86 1.475-.86 2.282 0 1.848.912 4.895 3.18 4.895.73 0 1.476-.354 1.907-.952zm-12.29 1.514c-2.973 0-4.56-2.314-4.56-4.41 0-2.448 2-4.544 4.842-4.544 2.748 0 4.467 2.151 4.467 4.411 0 2.207-1.699 4.543-4.749 4.543zm2.34-1.514c.447-.598.56-1.344.56-2.073 0-1.646-.787-4.787-3.104-4.787-.619 0-1.234.241-1.682.635-.732.654-.86 1.475-.86 2.282 0 1.848.915 4.895 3.178 4.895.731 0 1.476-.354 1.907-.952zm-8.088.865l-2.508.574c-1.015.161-1.927.302-2.892.302-4.835 0-6.678-3.56-6.678-6.345 0-3.402 2.61-6.556 7.08-6.556.946 0 1.856.139 2.685.364 1.314.37 1.929.825 2.313 1.091l-1.457 1.385-.614.135.437-.697c-.592-.579-1.682-1.648-3.75-1.648-2.767 0-4.853 2.101-4.853 5.172 0 3.296 2.383 6.397 6.202 6.397 1.124 0 1.701-.226 2.225-.436v-2.826l-2.647.142 1.404-.753h3.714l-.456.437c-.122.104-.137.139-.172.28-.018.16-.035.667-.035.846v2.136h.002zm46.984-.769v4.763h-.946v-12.12h.946v1.38a3.76 3.76 0 0 1 3.048-1.599c2.345 0 3.927 1.78 3.927 4.595 0 2.798-1.58 4.614-3.927 4.614-1.233.001-2.339-.635-3.048-1.633zm5.959-2.98c0-2.122-1.107-3.741-3.07-3.741-1.218 0-2.383.957-2.89 1.792v3.88c.507.835 1.672 1.829 2.89 1.829 1.963 0 3.07-1.633 3.07-3.76zm2.307 4.397v-12.12h.947v12.12zm11.559 2.562c.202.09.547.146.766.146.577 0 .982-.237 1.342-1.073l.692-1.563-3.727-8.846h1.055l3.197 7.667 3.165-7.667h1.07l-4.545 10.702c-.47 1.103-1.213 1.634-2.232 1.634-.306 0-.709-.056-.945-.128l.162-.872zm-2.763-2.589c-.064-.306-.11-.573-.145-.797a5.307 5.307 0 0 1-.044-.684c-.325.476-.784.872-1.37 1.184-.588.314-1.146.468-1.912.468-.921 0-1.635-.225-2.147-.686-.509-.46-.765-1.082-.765-1.87 0-.787.372-1.426 1.11-1.912.74-.491 1.695-.734 2.877-.734h2.207v-1.091c0-.63-.215-1.121-.642-1.48-.429-.359-1.031-.539-1.811-.539-.714 0-1.293.165-1.732.487-.436.33-.657.737-.657 1.228h-.968l-.019-.047c-.035-.663.267-1.244.913-1.745.64-.503 1.482-.754 2.517-.754 1.03 0 1.865.25 2.494.743.628.49.943 1.2.943 2.127v4.327a5.7 5.7 0 0 0 .243 1.772l-1.092.003zm-3.356-.689c.803 0 1.38-.18 1.971-.535.585-.353.986-.812 1.194-1.37v-1.685h-2.217c-.847 0-1.546.188-2.1.565-.551.377-.833.834-.833 1.365 0 .5.178.899.53 1.202.355.306.839.458 1.455.458zM23.36 3.446c0-1.862 1.383-3.06 3.104-3.06 1.153 0 1.907.55 2.377 1.223l-.842.488a1.913 1.913 0 0 0-1.535-.789c-1.17 0-2.04.887-2.04 2.137 0 1.234.87 2.138 2.04 2.138.603 0 1.135-.275 1.401-.531v-.915h-1.774v-.913h2.803v2.209a3.196 3.196 0 0 1-2.43 1.082c-1.72 0-3.105-1.215-3.105-3.07zM30.178 6.4V.483h4.053v.913h-3.015v1.526h2.953v.913h-2.953v1.65h3.015V6.4zm6.925 0V1.397H35.31V.484h4.62v.913h-1.79V6.4zm6.435 0V.483h1.038V6.4zm3.927 0V1.397h-1.791V.484h4.62v.913h-1.791V6.4zm6.179-2.954c0-1.765 1.25-3.06 3.025-3.06 1.764 0 3.023 1.295 3.023 3.06 0 1.765-1.259 3.06-3.023 3.06-1.774 0-3.025-1.295-3.025-3.06zm4.985 0c0-1.223-.772-2.137-1.959-2.137-1.197 0-1.96.913-1.96 2.137 0 1.216.763 2.137 1.96 2.137 1.187 0 1.96-.921 1.96-2.137zm6.4 2.954l-3.087-4.231v4.23h-1.037V.484h1.065l3.023 4.097V.483h1.039V6.4z" fill="#000"/><path d="M10.969 20.617l3.034-3.034-3.034 3.034-9.684-9.685 9.684 9.686-9.7 9.7 9.7-9.7 3.048 3.048h.001z"/><path d="M13.348 6.786L1.524.285C1.19.102.88.059.63.136l9.684 9.684 3.034-3.034z" fill="url(#a)" transform="translate(.655 10.797)"/><path d="M13.363 12.87l4.036-2.221c.818-.453.818-1.187 0-1.636l-4.05-2.227-3.035 3.034 3.05 3.05z" fill="url(#b)" transform="translate(.655 10.797)"/><path d="M.63.136C.27.248.036.613.036 1.164l.002 17.334c0 .544.226.903.575 1.022l9.7-9.7L.63.136z" fill="url(#c)" transform="translate(.655 10.797)"/><path d="M.614 19.52c.252.086.568.045.91-.141l11.838-6.51-3.048-3.048-9.7 9.7z" fill="url(#d)" transform="translate(.655 10.797)"/></g></svg>