<svg width="13" height="20" xmlns="http://www.w3.org/2000/svg"><path d="M7.627 11.935v3.088c1.129-.23 1.705-.899 1.705-1.613 0-.76-.714-1.152-1.705-1.475zm-2.19-4.124V5c-1.036.138-1.612.714-1.612 1.497 0 .669.645 1.038 1.613 1.314zm0 10.115C3.02 17.719 1.245 16.796 0 15.53l1.774-2.489a6.664 6.664 0 0 0 3.664 1.982v-3.64C3.065 10.782.484 9.907.484 6.773c0-2.327 1.843-4.308 4.954-4.631V0h2.189v2.189c1.866.207 3.433.921 4.677 2.05l-1.82 2.397c-.83-.76-1.82-1.244-2.857-1.498v3.25c2.373.598 5.023 1.52 5.023 4.653 0 2.558-1.66 4.516-5.023 4.862V20h-2.19v-2.074z" fill-rule="evenodd"/></svg>