<svg width="20" height="20" xmlns="http://www.w3.org/2000/svg"><path d="M9.976 15.035a4.918 4.918 0 1 1 0-9.836 4.917 4.917 0 0 1 4.918 4.918 4.917 4.917 0 0 1-4.918 4.918zm9.415-3.185a.52.52 0 0 0 .516-.515V8.853a.52.52 0 0 0-.516-.516h-1.592c-.235-.937-.609-1.873-1.124-2.67l1.31-1.311a.53.53 0 0 0 .142-.375.53.53 0 0 0-.141-.374l-1.78-1.78a.509.509 0 0 0-.702 0l-1.359 1.358a7.597 7.597 0 0 0-2.389-.984V.515A.52.52 0 0 0 11.241 0H8.759a.52.52 0 0 0-.516.515v1.686a7.662 7.662 0 0 0-2.482.984L4.31 1.733a.51.51 0 0 0-.703 0l-1.78 1.78a.53.53 0 0 0-.14.375c0 .14.047.28.14.374l1.406 1.405c-.515.797-.937 1.733-1.124 2.67H.515A.52.52 0 0 0 0 8.853v2.482a.52.52 0 0 0 .515.515h1.593c.187.89.515 1.686.983 2.436L1.827 15.55a.53.53 0 0 0-.14.375c0 .14.046.281.14.375l1.78 1.78c.093.093.234.14.374.14.14 0 .235-.047.375-.14l1.218-1.218a8.241 8.241 0 0 0 2.716 1.17v1.453a.52.52 0 0 0 .516.515h2.482a.52.52 0 0 0 .515-.515v-1.546a8.722 8.722 0 0 0 2.623-1.124l1.03 1.03a.53.53 0 0 0 .376.14c.14 0 .234-.046.374-.14l1.78-1.78a.53.53 0 0 0 .14-.374.531.531 0 0 0-.14-.375l-1.171-1.03a7.66 7.66 0 0 0 .984-2.483h1.592v.047z" fill-rule="evenodd"/></svg>