<svg width="105" height="100" xmlns="http://www.w3.org/2000/svg" xmlns:xlink="http://www.w3.org/1999/xlink"><defs><path id="a" d="M14.852.1H.337v14.515h14.515V.1z"/></defs><g fill="none" fill-rule="evenodd"><path d="M20.857 84.344H83.08v-40H20.857v40zm6.667-6.666h48.889V51.01h-48.89v26.667z" fill="#000"/><path fill="#000" d="M32.523 99.9h6.668V83.233h-6.668zm31.667 0h6.667V83.233h-6.666zM52.801 4.59c-17.14 0-31.057 14.2-31.293 30.866h62.587C83.858 18.789 69.943 4.59 52.8 4.59m0 6.666c11.049 0 20.501 7.532 23.577 17.532H29.225c3.075-10 12.528-17.532 23.576-17.532m36.296 36.583l-4.714-4.715L99.89 27.62l4.714 4.714zm-73.591 0L0 32.333l4.714-4.714L20.22 43.124z"/><path fill="#000" d="M68.91 15.07l-4.715-4.713L73.997.556l4.713 4.713z"/><g transform="translate(26.556 .456)"><mask id="b" fill="#fff"><use xlink:href="#a"/></mask><path fill="#000" mask="url(#b)" d="M10.138 14.615l-9.801-9.8L5.05.1l9.8 9.8z"/></g></g></svg>