<svg width="86" height="100" xmlns="http://www.w3.org/2000/svg"><g fill-rule="evenodd"><path d="M.258.538v84.194h19.71v14.92l27.295-14.92h38.288V.538H.258zM6.71 6.99h72.389v71.29H45.615L26.419 88.773V78.28H6.71V6.99z"/><path d="M25.11 46.927V40.66h-6.478v6.268h-4.023v-15.6h4.023v5.823h6.479v-5.823h4.022v15.6zm11.998-8.794c-1.567 0-2.175 1.123-2.316 1.941h4.655c-.094-.795-.678-1.941-2.339-1.941zm-6.011 3.134c0-3.274 2.48-5.917 6.011-5.917 3.345 0 5.777 2.456 5.777 6.291v.772h-8.046c.211 1.053 1.193 2.011 2.83 2.011.795 0 2.176-.35 2.807-.958l1.52 2.245c-1.122 1.006-2.994 1.497-4.724 1.497-3.485 0-6.175-2.269-6.175-5.94z"/><path mask="url(#mask-2)" d="M44.404 46.737h3.601v-15.6h-3.601zm6.22 0h3.602v-15.6h-3.602zm14.103-5.66c0-1.497-.889-2.737-2.48-2.737-1.567 0-2.432 1.24-2.432 2.737 0 1.52.865 2.76 2.433 2.76 1.59 0 2.479-1.24 2.479-2.76m-8.631 0c0-3.181 2.316-5.918 6.152-5.918 3.882 0 6.174 2.737 6.174 5.918 0 3.18-2.292 5.94-6.174 5.94-3.836 0-6.152-2.76-6.152-5.94m15.67 8.981l-1.497-1.216c.748-.375 1.73-1.38 1.988-2.222-.118.023-.328.07-.538.07-1.006 0-1.824-.772-1.824-1.918a2.16 2.16 0 0 1 2.15-2.151c1.264 0 2.387.982 2.387 2.69 0 1.917-1.03 3.601-2.666 4.747" transform="translate(.258 .19)"/></g></svg>