<svg width="24" height="14" xmlns="http://www.w3.org/2000/svg"><path d="M23.419.952s-.171-.48-1.234-.348L18.67.628C18.4.592 18.205.7 18.205.7s-.208.108-.305.373c-.574 1.454-1.307 2.704-1.307 2.704-1.563 2.62-2.198 2.764-2.454 2.596-.598-.372-.44-1.514-.44-2.332 0-2.548.391-3.605-.769-3.882-.378-.084-.66-.144-1.648-.156-1.258-.012-2.32 0-2.918.288-.403.193-.709.625-.525.65.231.036.757.144 1.037.516 0 0 .306.493.354 1.575.135 2.993-.488 3.365-.488 3.365-.476.253-1.306-.168-2.527-2.644 0 0-.709-1.226-1.258-2.572-.098-.253-.293-.385-.293-.385S4.444.628 4.127.58L.78.604C.268.604.085.832.085.832s-.183.193-.012.59c2.613 6.045 5.592 9.074 5.592 9.074s2.723 2.8 5.812 2.608h1.404c.428-.036.647-.265.647-.265s.196-.216.184-.612c-.025-1.851.854-2.128.854-2.128.855-.264 1.954 1.791 3.126 2.584 0 0 .891.601 1.563.469l3.126-.048c1.648-.012.867-1.358.867-1.358-.061-.108-.452-.938-2.333-2.657-1.953-1.79-1.697-1.502.672-4.603 1.44-1.887 2.015-3.04 1.832-3.534z" fill-rule="evenodd"/></svg>