<svg xmlns="http://www.w3.org/2000/svg" width="138" height="46"><path d="M.403.198H8.07v35.077H.403V.198zm37.5 10.925v24.153h-7.667v-3.407a6.328 6.328 0 0 1-1.203 1.579 7.77 7.77 0 0 1-1.729 1.251c-.651.351-1.362.635-2.13.852a8.452 8.452 0 0 1-2.305.326c-1.737 0-3.332-.326-4.786-.977-1.453-.652-2.698-1.537-3.733-2.655-1.036-1.119-1.837-2.456-2.405-4.011-.568-1.552-.852-3.23-.852-5.034 0-1.804.284-3.483.852-5.036.568-1.554 1.369-2.89 2.405-4.009a11.346 11.346 0 0 1 3.733-2.655c1.454-.651 3.048-.978 4.786-.978.768 0 1.536.109 2.305.326a9.684 9.684 0 0 1 2.13.877 7.923 7.923 0 0 1 1.729 1.303c.501.5.902 1.019 1.203 1.553v-3.458h7.667zM24.474 29.362c.869 0 1.654-.167 2.355-.501s1.303-.777 1.804-1.328a6.066 6.066 0 0 0 1.178-1.955c.284-.75.426-1.544.426-2.379a6.473 6.473 0 0 0-1.604-4.31c-.501-.568-1.102-1.019-1.804-1.353s-1.487-.501-2.355-.501-1.653.167-2.354.501a5.564 5.564 0 0 0-1.804 1.353 6.477 6.477 0 0 0-1.604 4.31c0 .834.142 1.629.426 2.379.284.752.677 1.404 1.178 1.955s1.103.994 1.804 1.328c.701.334 1.485.501 2.354.501zm47.302 5.913V22.247c0-1.637-.292-2.915-.877-3.833-.584-.919-1.527-1.378-2.83-1.378-.568 0-1.103.101-1.604.301a3.131 3.131 0 0 0-1.303 1.002c-.368.468-.651 1.094-.852 1.879-.201.786-.301 1.762-.301 2.932v12.126h-7.417v-13.08c0-1.636-.284-2.906-.852-3.808-.568-.903-1.487-1.354-2.756-1.354-.602 0-1.153.101-1.654.301-.501.201-.936.543-1.303 1.028-.368.484-.66 1.127-.877 1.928-.218.802-.326 1.805-.326 3.007v11.977h-7.416V11.123h7.416v3.507c.534-1.135 1.403-2.105 2.605-2.906 1.203-.802 2.656-1.203 4.36-1.203 2.104 0 3.724.418 4.86 1.253 1.135.835 1.954 1.872 2.456 3.106.634-1.27 1.603-2.312 2.906-3.131 1.303-.818 2.856-1.228 4.661-1.228 1.736 0 3.156.275 4.259.827 1.103.551 1.972 1.286 2.605 2.205.635.919 1.061 1.971 1.278 3.157a20.43 20.43 0 0 1 .325 3.683v14.883h-7.363zM90.065 14.58a7.189 7.189 0 0 1 1.203-1.553 7.69 7.69 0 0 1 1.754-1.303 10.348 10.348 0 0 1 2.13-.877 8.357 8.357 0 0 1 2.329-.326c1.738 0 3.332.326 4.787.978a11.358 11.358 0 0 1 3.731 2.655c1.036 1.12 1.836 2.455 2.406 4.009.567 1.553.852 3.232.852 5.036 0 1.804-.284 3.482-.852 5.034-.57 1.555-1.37 2.892-2.406 4.011a11.373 11.373 0 0 1-3.731 2.655c-1.455.65-3.049.977-4.787.977a8.357 8.357 0 0 1-2.329-.326 10.293 10.293 0 0 1-2.13-.877 8.1 8.1 0 0 1-1.754-1.277 6.3 6.3 0 0 1-1.203-1.577v14.38h-7.667V11.123h7.667v3.457zm47.553-3.457v24.153h-7.665v-3.407a6.351 6.351 0 0 1-1.203 1.579 7.793 7.793 0 0 1-1.729 1.251c-.652.351-1.362.635-2.13.852a8.458 8.458 0 0 1-2.305.326c-1.738 0-3.333-.326-4.787-.977-1.452-.652-2.697-1.537-3.731-2.655-1.036-1.119-1.838-2.456-2.406-4.011-.568-1.552-.852-3.23-.852-5.034 0-1.804.283-3.483.852-5.036.568-1.554 1.37-2.89 2.406-4.009a11.338 11.338 0 0 1 3.731-2.655c1.454-.651 3.049-.978 4.787-.978.768 0 1.535.109 2.305.326a9.704 9.704 0 0 1 2.13.877c.65.367 1.228.801 1.729 1.303.501.5.901 1.019 1.203 1.553v-3.458h7.665zm-13.429 18.239c.869 0 1.653-.167 2.355-.501.701-.334 1.303-.777 1.804-1.328s.893-1.203 1.179-1.955c.281-.75.426-1.544.426-2.379s-.145-1.621-.426-2.355a6.5 6.5 0 0 0-1.179-1.955 5.575 5.575 0 0 0-1.804-1.353c-.702-.334-1.486-.501-2.355-.501s-1.654.167-2.354.501a5.564 5.564 0 0 0-1.804 1.353 6.48 6.48 0 0 0-1.604 4.31c0 .834.142 1.629.426 2.379a6.03 6.03 0 0 0 1.178 1.955 5.745 5.745 0 0 0 1.804 1.328c.7.334 1.485.501 2.354.501z"/><path fill="#F8CC37" d="M95.879 17.035c-.869 0-1.663.167-2.381.501s-1.328.776-1.828 1.328a6.046 6.046 0 0 0-1.179 1.954c-.284.751-.426 1.546-.426 2.381s.142 1.629.426 2.379a6.05 6.05 0 0 0 1.179 1.955c.5.551 1.11.994 1.828 1.328s1.512.501 2.381.501c.835 0 1.603-.167 2.305-.501s1.303-.777 1.804-1.328c.5-.551.894-1.203 1.178-1.955.284-.75.426-1.544.426-2.379s-.142-1.629-.426-2.381a6.061 6.061 0 0 0-1.178-1.954c-.501-.551-1.102-.994-1.804-1.328s-1.47-.501-2.305-.501z"/></svg>